<svg width="34" height="34" viewBox="0 0 34 34" fill="none" xmlns="http://www.w3.org/2000/svg">
<path d="M17 0C28.5909 0 34 5.40909 34 17C34 28.5909 28.5909 34 17 34C5.40909 34 0 28.5909 0 17C0 5.40909 5.40909 0 17 0Z" fill="#DDF8EF"/>
<path d="M11.368 19.7372C11.6973 19.5726 12.0978 19.7059 12.2625 20.0351C12.9996 21.5091 14.4853 22.3329 16.9998 22.3329C17.3679 22.3331 17.6658 22.6319 17.6659 22.9999C17.6659 23.368 17.3679 23.6668 16.9998 23.6669C14.1817 23.6668 12.1109 22.7129 11.0702 20.6318C10.9057 20.3027 11.0391 19.902 11.368 19.7372ZM20.1366 10.3369C20.5029 10.3019 20.8279 10.5702 20.8631 10.9365C21.0343 12.7259 21.9055 16.3794 22.9471 18.8554C23.0853 19.1839 22.9408 19.5628 22.619 19.7158C20.2597 20.8372 17.8253 20.3109 16.5409 19.0898C16.2743 18.8362 16.2631 18.4142 16.5165 18.1474C16.7701 17.8807 17.192 17.8704 17.4588 18.124C18.2212 18.8488 19.7772 19.316 21.4676 18.747C20.4906 16.2004 19.7062 12.8428 19.536 11.0634C19.5011 10.6971 19.7703 10.372 20.1366 10.3369ZM13.6659 10.3329C14.7703 10.3329 15.6657 11.2285 15.6659 12.3329C15.6659 13.4375 14.7704 14.3329 13.6659 14.3329C12.5617 14.3325 11.6659 13.4372 11.6659 12.3329C11.6661 11.2288 12.5618 10.3334 13.6659 10.3329Z" fill="#5CAD9A"/>
</svg>
