<svg width="34" height="34" viewBox="0 0 34 34" fill="none" xmlns="http://www.w3.org/2000/svg">
<path d="M17 0C28.5909 0 34 5.40909 34 17C34 28.5909 28.5909 34 17 34C5.40909 34 0 28.5909 0 17C0 5.40909 5.40909 0 17 0Z" fill="#FCF5E3"/>
<path d="M11.8475 21.6913C12.5883 21.8996 14.6998 22.3329 16.9999 22.3329C17.3679 22.3332 17.6668 22.6319 17.6669 22.9999C17.6668 23.368 17.3679 23.6667 16.9999 23.6669C14.5605 23.6669 12.3266 23.2118 11.4862 22.9755C11.1319 22.8758 10.9258 22.5076 11.0253 22.1533C11.125 21.7989 11.4931 21.5917 11.8475 21.6913ZM20.1366 10.3369C20.5028 10.3021 20.828 10.5703 20.8631 10.9365C21.0343 12.7259 21.9065 16.3793 22.9481 18.8554C23.086 19.1838 22.9406 19.5627 22.619 19.7158C20.2598 20.8372 17.8254 20.3108 16.5409 19.0898C16.2741 18.8361 16.2638 18.4142 16.5174 18.1474C16.7712 17.881 17.1922 17.8705 17.4588 18.124C18.2213 18.8488 19.7772 19.3161 21.4676 18.747C20.4906 16.2004 19.7072 12.8429 19.537 11.0634C19.5021 10.6971 19.7703 10.372 20.1366 10.3369ZM13.6669 10.3329C14.7711 10.3332 15.6667 11.2287 15.6669 12.3329C15.6669 13.4373 14.7712 14.3327 13.6669 14.3329C12.5623 14.3329 11.6669 13.4375 11.6669 12.3329C11.667 11.2285 12.5624 10.3329 13.6669 10.3329Z" fill="#DE9C7E"/>
</svg>
