<svg width="44" height="44" viewBox="0 0 44 44" fill="none" xmlns="http://www.w3.org/2000/svg">
<g clip-path="url(#clip0_54_5575)">
<rect width="44" height="44" fill="#95AEE2"/>
<path d="M15.9844 23.7188C16.9336 23.7188 17.7031 24.4883 17.7031 25.4375V29.7344C17.7031 30.6836 16.9336 31.4531 15.9844 31.4531H13.4062C12.457 31.4531 11.6875 30.6836 11.6875 29.7344V25.4375C11.6875 24.4883 12.457 23.7188 13.4062 23.7188H15.9844ZM23.7188 18.5625C24.668 18.5625 25.4375 19.332 25.4375 20.2812V29.7344C25.4375 30.6836 24.668 31.4531 23.7188 31.4531H21.1406C20.1914 31.4531 19.4219 30.6836 19.4219 29.7344V20.2812C19.4219 19.332 20.1914 18.5625 21.1406 18.5625H23.7188ZM31.4531 12.5469C32.4024 12.5469 33.1719 13.3164 33.1719 14.2656V29.7344C33.1719 30.6836 32.4024 31.4531 31.4531 31.4531H28.875C27.9258 31.4531 27.1562 30.6836 27.1562 29.7344V14.2656C27.1562 13.3164 27.9258 12.5469 28.875 12.5469H31.4531Z" fill="white"/>
</g>
<defs>
<clipPath id="clip0_54_5575">
<path d="M0 20C0 10.5719 0 5.85786 2.92893 2.92893C5.85786 0 10.5719 0 20 0H24C33.4281 0 38.1421 0 41.0711 2.92893C44 5.85786 44 10.5719 44 20V24C44 33.4281 44 38.1421 41.0711 41.0711C38.1421 44 33.4281 44 24 44H20C10.5719 44 5.85786 44 2.92893 41.0711C0 38.1421 0 33.4281 0 24V20Z" fill="white"/>
</clipPath>
</defs>
</svg>
