<svg width="44" height="44" viewBox="0 0 44 44" fill="none" xmlns="http://www.w3.org/2000/svg">
<g clip-path="url(#clip0_54_5913)">
<rect width="44" height="44" fill="#DE9C7E"/>
<path d="M21.1741 11.4231C21.4385 10.6298 22.5609 10.6298 22.8255 11.4231L25.2639 18.7366L32.5764 21.1741C33.2878 21.4112 33.3613 22.3383 32.7971 22.718C31.875 22.2585 30.8349 22.0003 29.7346 22.0003C25.9377 22.0003 22.8596 25.0783 22.8596 28.8753C22.8597 29.703 23.0055 30.4967 23.2737 31.2317L22.8255 32.5764C22.561 33.3698 21.4386 33.3698 21.1741 32.5764L18.7366 25.2639L11.4231 22.8255C10.6298 22.5609 10.6298 21.4385 11.4231 21.1741L18.7366 18.7366L21.1741 11.4231ZM29.1272 25.6897C29.4628 25.3541 30.0065 25.3541 30.3421 25.6897L32.9202 28.2678C33.2555 28.6035 33.2557 29.1472 32.9202 29.4827C32.5847 29.8182 32.041 29.818 31.7053 29.4827L30.594 28.3714V32.3128C30.5939 32.7872 30.209 33.172 29.7346 33.1721C29.2601 33.1721 28.8754 32.7873 28.8753 32.3128V28.3714L27.7639 29.4827C27.4284 29.8182 26.8847 29.818 26.5491 29.4827C26.2135 29.1471 26.2135 28.6034 26.5491 28.2678L29.1272 25.6897Z" fill="white"/>
</g>
<defs>
<clipPath id="clip0_54_5913">
<path d="M0 20C0 10.5719 0 5.85786 2.92893 2.92893C5.85786 0 10.5719 0 20 0H24C33.4281 0 38.1421 0 41.0711 2.92893C44 5.85786 44 10.5719 44 20V24C44 33.4281 44 38.1421 41.0711 41.0711C38.1421 44 33.4281 44 24 44H20C10.5719 44 5.85786 44 2.92893 41.0711C0 38.1421 0 33.4281 0 24V20Z" fill="white"/>
</clipPath>
</defs>
</svg>
