<svg width="44" height="44" viewBox="0 0 44 44" fill="none" xmlns="http://www.w3.org/2000/svg">
<g clip-path="url(#clip0_54_5791)">
<rect width="44" height="44" fill="#B79FE9"/>
<path d="M19.4219 25.4375C19.4219 25.9121 19.8066 26.2969 20.2812 26.2969H23.7188C24.1934 26.2969 24.5781 25.9121 24.5781 25.4375V24.5781H32.3125V28.875C32.3125 30.2989 31.1582 31.4531 29.7344 31.4531H14.2656C12.8418 31.4531 11.6875 30.2989 11.6875 28.875V24.5781H19.4219V25.4375ZM23.7188 11.6875C25.6172 11.6875 27.1562 13.2265 27.1562 15.125V15.9844H29.7344C31.1582 15.9844 32.3125 17.1386 32.3125 18.5625V22.8594H24.5781V22C24.5781 21.5254 24.1934 21.1406 23.7188 21.1406H20.2812C19.8066 21.1406 19.4219 21.5254 19.4219 22V22.8594H11.6875V18.5625C11.6875 17.1386 12.8418 15.9844 14.2656 15.9844H16.8438V15.125C16.8438 13.2265 18.3828 11.6875 20.2812 11.6875H23.7188ZM20.2812 13.4062C19.332 13.4062 18.5625 14.1758 18.5625 15.125V15.9844H25.4375V15.125C25.4375 14.1758 24.668 13.4062 23.7188 13.4062H20.2812Z" fill="white"/>
</g>
<defs>
<clipPath id="clip0_54_5791">
<path d="M0 20C0 10.5719 0 5.85786 2.92893 2.92893C5.85786 0 10.5719 0 20 0H24C33.4281 0 38.1421 0 41.0711 2.92893C44 5.85786 44 10.5719 44 20V24C44 33.4281 44 38.1421 41.0711 41.0711C38.1421 44 33.4281 44 24 44H20C10.5719 44 5.85786 44 2.92893 41.0711C0 38.1421 0 33.4281 0 24V20Z" fill="white"/>
</clipPath>
</defs>
</svg>
