<svg width="44" height="44" viewBox="0 0 44 44" fill="none" xmlns="http://www.w3.org/2000/svg">
<g clip-path="url(#clip0_54_5595)">
<rect width="44" height="44" fill="#D796C1"/>
<path d="M24.8496 13.9681C28.278 12.2178 32.7421 14.7367 32.7422 19.0335C32.7419 26.1551 25.0691 30.7587 22.627 32.224C22.5501 32.2701 22.4782 32.314 22.4121 32.3538C22.156 32.5082 21.844 32.5082 21.5879 32.3538C21.5218 32.314 21.4499 32.2701 21.373 32.224C18.9309 30.7587 11.2581 26.1551 11.2578 19.0335C11.2579 14.7367 15.722 12.2178 19.1504 13.9681L21.4238 15.1292C21.7865 15.3142 22.2135 15.3142 22.5762 15.1292L24.8496 13.9681ZM22 19.4632C21.5254 19.4632 21.1407 19.848 21.1406 20.3226V22.0413H19.4219C18.9473 22.0413 18.5625 22.4261 18.5625 22.9007C18.5627 23.3751 18.9474 23.7601 19.4219 23.7601H21.1406V25.4788C21.1409 25.9533 21.5255 26.3382 22 26.3382C22.4745 26.3382 22.8591 25.9533 22.8594 25.4788V23.7601H24.5781C25.0526 23.7601 25.4373 23.3751 25.4375 22.9007C25.4375 22.4261 25.0527 22.0413 24.5781 22.0413H22.8594V20.3226C22.8593 19.848 22.4746 19.4632 22 19.4632Z" fill="white"/>
</g>
<defs>
<clipPath id="clip0_54_5595">
<path d="M0 20C0 10.5719 0 5.85786 2.92893 2.92893C5.85786 0 10.5719 0 20 0H24C33.4281 0 38.1421 0 41.0711 2.92893C44 5.85786 44 10.5719 44 20V24C44 33.4281 44 38.1421 41.0711 41.0711C38.1421 44 33.4281 44 24 44H20C10.5719 44 5.85786 44 2.92893 41.0711C0 38.1421 0 33.4281 0 24V20Z" fill="white"/>
</clipPath>
</defs>
</svg>
