<svg width="44" height="44" viewBox="0 0 44 44" fill="none" xmlns="http://www.w3.org/2000/svg">
<g clip-path="url(#clip0_54_5875)">
<rect width="44" height="44" fill="#91C089"/>
<path d="M23.833 11C25.3518 11 26.583 12.2312 26.583 13.75V29.333C26.583 30.8518 25.3518 32.083 23.833 32.083H12.833C11.3144 32.0828 10.083 30.8517 10.083 29.333V13.75C10.083 12.2313 11.3144 11.0002 12.833 11H23.833ZM28.417 13.9062C29.485 14.2838 30.25 15.3027 30.25 16.5V29.333C30.25 30.7762 29.1384 31.96 27.7246 32.0742C28.1552 31.5888 28.417 30.9499 28.417 30.25V13.9062ZM32.083 16.6562C33.1511 17.0338 33.917 18.0526 33.917 19.25V29.333C33.917 30.7761 32.8052 31.9598 31.3916 32.0742C31.8221 31.5888 32.083 30.9498 32.083 30.25V16.6562ZM14.25 27.083C13.7437 27.083 13.333 27.4937 13.333 28C13.333 28.5063 13.7437 28.917 14.25 28.917H18.25C18.7563 28.917 19.167 28.5063 19.167 28C19.167 27.4937 18.7563 27.083 18.25 27.083H14.25ZM14.25 23.083C13.7437 23.083 13.333 23.4937 13.333 24C13.333 24.5063 13.7437 24.917 14.25 24.917H22.25C22.7563 24.917 23.167 24.5063 23.167 24C23.167 23.4937 22.7563 23.083 22.25 23.083H14.25ZM14.25 14.083C13.7437 14.083 13.333 14.4937 13.333 15C13.333 15.5063 13.7437 15.917 14.25 15.917H18.25C18.7563 15.917 19.167 15.5063 19.167 15C19.167 14.4937 18.7563 14.083 18.25 14.083H14.25Z" fill="white"/>
</g>
<defs>
<clipPath id="clip0_54_5875">
<path d="M0 20C0 10.5719 0 5.85786 2.92893 2.92893C5.85786 0 10.5719 0 20 0H24C33.4281 0 38.1421 0 41.0711 2.92893C44 5.85786 44 10.5719 44 20V24C44 33.4281 44 38.1421 41.0711 41.0711C38.1421 44 33.4281 44 24 44H20C10.5719 44 5.85786 44 2.92893 41.0711C0 38.1421 0 33.4281 0 24V20Z" fill="white"/>
</clipPath>
</defs>
</svg>
