<svg width="44" height="44" viewBox="0 0 44 44" fill="none" xmlns="http://www.w3.org/2000/svg">
<g clip-path="url(#clip0_54_5506)">
<rect width="44" height="44" fill="#C799DF"/>
<path d="M28.0156 11.6875C29.4395 11.6875 30.5938 12.8418 30.5938 14.2656V29.7344C30.5938 31.1582 29.4395 32.3125 28.0156 32.3125H15.9844C14.5605 32.3125 13.4062 31.1582 13.4062 29.7344V14.2656C13.4062 12.8418 14.5605 11.6875 15.9844 11.6875H28.0156ZM19.4219 23.7188C17.998 23.7188 16.8438 24.873 16.8438 26.2969C16.8438 27.7207 17.998 28.875 19.4219 28.875C20.8457 28.875 22 27.7207 22 26.2969C22 24.873 20.8457 23.7188 19.4219 23.7188ZM17.7031 18.5625C17.2285 18.5625 16.8438 18.9473 16.8438 19.4219C16.8438 19.8965 17.2285 20.2812 17.7031 20.2812H26.2969C26.7715 20.2812 27.1562 19.8965 27.1562 19.4219C27.1562 18.9473 26.7715 18.5625 26.2969 18.5625H17.7031ZM17.7031 15.125C17.2285 15.125 16.8438 15.5098 16.8438 15.9844C16.8438 16.459 17.2285 16.8438 17.7031 16.8438H21.1406C21.6152 16.8438 22 16.459 22 15.9844C22 15.5098 21.6152 15.125 21.1406 15.125H17.7031Z" fill="white"/>
</g>
<defs>
<clipPath id="clip0_54_5506">
<path d="M0 20C0 10.5719 0 5.85786 2.92893 2.92893C5.85786 0 10.5719 0 20 0H24C33.4281 0 38.1421 0 41.0711 2.92893C44 5.85786 44 10.5719 44 20V24C44 33.4281 44 38.1421 41.0711 41.0711C38.1421 44 33.4281 44 24 44H20C10.5719 44 5.85786 44 2.92893 41.0711C0 38.1421 0 33.4281 0 24V20Z" fill="white"/>
</clipPath>
</defs>
</svg>
