<svg width="44" height="44" viewBox="0 0 44 44" fill="none" xmlns="http://www.w3.org/2000/svg">
<g clip-path="url(#clip0_54_5815)">
<rect width="44" height="44" fill="#E59594"/>
<path d="M16.0991 22C16.1886 22 16.2688 22.0558 16.3003 22.1396L19.9624 31.9033C20.0461 32.1275 19.755 32.3001 19.5981 32.1191L12.061 23.4229C11.5787 22.8663 11.974 22 12.7104 22H16.0991ZM31.2895 22C32.0259 22.0001 32.4212 22.8664 31.9389 23.4229L24.4009 32.1191C24.244 32.3 23.9538 32.1275 24.0376 31.9033L27.6987 22.1396C27.7302 22.0558 27.8113 22 27.9009 22H31.2895ZM25.6059 22C25.7558 22 25.8596 22.1497 25.8071 22.29L22.2016 31.9062C22.1319 32.0921 21.868 32.0921 21.7983 31.9062L18.1919 22.29C18.1396 22.1497 18.2442 22 18.394 22H25.6059ZM29.2358 14.2656C29.544 14.2657 29.8289 14.4307 29.9819 14.6982L32.437 18.9951C32.7641 19.5679 32.3505 20.281 31.6909 20.2812H12.3091C11.6494 20.2811 11.2349 19.5679 11.562 18.9951L14.0181 14.6982C14.1711 14.4307 14.456 14.2657 14.7641 14.2656H29.2358Z" fill="white"/>
</g>
<defs>
<clipPath id="clip0_54_5815">
<path d="M0 20C0 10.5719 0 5.85786 2.92893 2.92893C5.85786 0 10.5719 0 20 0H24C33.4281 0 38.1421 0 41.0711 2.92893C44 5.85786 44 10.5719 44 20V24C44 33.4281 44 38.1421 41.0711 41.0711C38.1421 44 33.4281 44 24 44H20C10.5719 44 5.85786 44 2.92893 41.0711C0 38.1421 0 33.4281 0 24V20Z" fill="white"/>
</clipPath>
</defs>
</svg>
