<svg width="44" height="44" viewBox="0 0 44 44" fill="none" xmlns="http://www.w3.org/2000/svg">
<g clip-path="url(#clip0_54_5533)">
<rect width="44" height="44" fill="#A8A3F1"/>
<path d="M29.1602 23.7266C31.8752 23.8746 34.0312 26.123 34.0312 28.875C34.0312 30.2987 32.8768 31.453 31.4531 31.4531H19.4219C17.9982 31.453 16.8438 30.2987 16.8438 28.875C16.8438 28.4621 16.8927 28.0606 16.9844 27.6758C17.0059 27.5854 17.0294 27.4957 17.0557 27.4072C17.0993 27.2601 17.15 27.1159 17.2061 26.9746C17.2079 26.97 17.2091 26.9646 17.2109 26.96L17.2227 26.9307C17.4248 26.4345 17.7028 25.9772 18.041 25.5723C18.0501 25.5614 18.0592 25.5498 18.0684 25.5391C18.2129 25.3689 18.3691 25.2087 18.5342 25.0586C18.5434 25.0502 18.5523 25.0415 18.5615 25.0332C18.6688 24.9372 18.7805 24.8457 18.8955 24.7588C18.9065 24.7505 18.9177 24.7416 18.9287 24.7334C18.9813 24.6943 19.0348 24.6562 19.0889 24.6191C19.1001 24.6114 19.1117 24.6043 19.123 24.5967C19.2433 24.5157 19.367 24.439 19.4941 24.3682C19.504 24.3627 19.5145 24.358 19.5244 24.3525C20.1809 23.9924 20.924 23.7697 21.7148 23.7266C22.5636 24.7139 23.7942 25.3535 25.1621 25.4297L25.4375 25.4375C25.6342 25.4375 25.8283 25.4231 26.0195 25.4014C27.2636 25.2534 28.3755 24.6392 29.1602 23.7266ZM14.8398 22.0078C15.5377 22.8195 16.4941 23.3944 17.5723 23.6162C16.0761 24.8773 15.125 26.765 15.125 28.875L15.1309 29.0957C15.1419 29.3133 15.1697 29.5265 15.2119 29.7344H12.5469C11.1233 29.7341 9.96879 28.5799 9.96875 27.1562C9.96875 24.4044 12.1251 22.1561 14.8398 22.0078ZM25.6152 14.2656C27.7598 14.2658 29.3807 16.2084 28.9971 18.3184L28.4775 21.1826C28.2103 22.6512 26.9302 23.7187 25.4375 23.7188C23.9448 23.7186 22.6657 22.6512 22.3984 21.1826L21.8779 18.3184C21.4943 16.2083 23.1152 14.2657 25.2598 14.2656H25.6152ZM18.7402 12.5469C19.9615 12.5469 21.0129 13.1773 21.6211 14.1094C20.4922 15.2205 19.849 16.8154 20.0205 18.5322L20.2402 20.7344C20.2637 20.9693 20.3024 21.1997 20.3555 21.4238C19.8464 21.7872 19.2261 22 18.5625 22C17.0698 21.9999 15.7907 20.9324 15.5234 19.4639L15.0029 16.5996C14.6193 14.4896 16.2402 12.547 18.3848 12.5469H18.7402Z" fill="white"/>
</g>
<defs>
<clipPath id="clip0_54_5533">
<path d="M0 20C0 10.5719 0 5.85786 2.92893 2.92893C5.85786 0 10.5719 0 20 0H24C33.4281 0 38.1421 0 41.0711 2.92893C44 5.85786 44 10.5719 44 20V24C44 33.4281 44 38.1421 41.0711 41.0711C38.1421 44 33.4281 44 24 44H20C10.5719 44 5.85786 44 2.92893 41.0711C0 38.1421 0 33.4281 0 24V20Z" fill="white"/>
</clipPath>
</defs>
</svg>
