<svg width="44" height="44" viewBox="0 0 44 44" fill="none" xmlns="http://www.w3.org/2000/svg">
<g clip-path="url(#clip0_54_5843)">
<rect width="44" height="44" fill="#82BAD4"/>
<path d="M28.875 24.5781C31.2481 24.5781 33.1719 26.5019 33.1719 28.875C33.1719 29.7508 32.9089 30.5649 32.459 31.2441L33.7793 32.5645C34.1149 32.9001 34.1149 33.4437 33.7793 33.7793C33.4437 34.1149 32.9001 34.1149 32.5645 33.7793L31.2441 32.459C30.5649 32.9089 29.7508 33.1719 28.875 33.1719C26.5019 33.1719 24.5781 31.2481 24.5781 28.875C24.5781 26.5019 26.5019 24.5781 28.875 24.5781ZM17.2969 23.7188C18.5737 24.7946 20.219 25.4375 22 25.4375C22.7621 25.4375 23.499 25.3173 24.1934 25.0986C23.3597 26.131 22.8595 27.4448 22.8594 28.875C22.8595 30.5581 23.5518 32.0791 24.666 33.1709H13.4062C11.9824 33.1709 10.8281 32.0166 10.8281 30.5928V29.7334C10.8286 26.4115 13.5217 23.7188 16.8438 23.7188H17.2969ZM28.875 26.2969C27.4511 26.2969 26.2969 27.4511 26.2969 28.875C26.2969 30.2989 27.4511 31.4531 28.875 31.4531C30.2989 31.4531 31.4531 30.2989 31.4531 28.875C31.4531 27.4511 30.2989 26.2969 28.875 26.2969ZM22 10.8281C25.1358 10.8281 27.5091 13.6631 26.958 16.75L26.5469 19.0527C26.1534 21.2555 24.2376 22.8594 22 22.8594C19.7624 22.8594 17.8466 21.2555 17.4531 19.0527L17.042 16.75C16.4909 13.6631 18.8642 10.8281 22 10.8281Z" fill="white"/>
</g>
<defs>
<clipPath id="clip0_54_5843">
<path d="M0 20C0 10.5719 0 5.85786 2.92893 2.92893C5.85786 0 10.5719 0 20 0H24C33.4281 0 38.1421 0 41.0711 2.92893C44 5.85786 44 10.5719 44 20V24C44 33.4281 44 38.1421 41.0711 41.0711C38.1421 44 33.4281 44 24 44H20C10.5719 44 5.85786 44 2.92893 41.0711C0 38.1421 0 33.4281 0 24V20Z" fill="white"/>
</clipPath>
</defs>
</svg>
