<svg width="44" height="44" viewBox="0 0 44 44" fill="none" xmlns="http://www.w3.org/2000/svg">
<g clip-path="url(#clip0_54_5945)">
<rect width="44" height="44" fill="#82BEBE"/>
<path d="M21.1741 11.4231C21.4385 10.6298 22.5609 10.6298 22.8255 11.4231L25.263 18.7366L32.5764 21.1741C33.3698 21.4386 33.3698 22.561 32.5764 22.8255L25.263 25.263L22.8255 32.5764C22.561 33.3698 21.4386 33.3698 21.1741 32.5764L18.7366 25.263L11.4231 22.8255C10.6298 22.5609 10.6298 21.4385 11.4231 21.1741L18.7366 18.7366L21.1741 11.4231Z" fill="white"/>
</g>
<defs>
<clipPath id="clip0_54_5945">
<path d="M0 20C0 10.5719 0 5.85786 2.92893 2.92893C5.85786 0 10.5719 0 20 0H24C33.4281 0 38.1421 0 41.0711 2.92893C44 5.85786 44 10.5719 44 20V24C44 33.4281 44 38.1421 41.0711 41.0711C38.1421 44 33.4281 44 24 44H20C10.5719 44 5.85786 44 2.92893 41.0711C0 38.1421 0 33.4281 0 24V20Z" fill="white"/>
</clipPath>
</defs>
</svg>
